<svg width="155" height="32" viewBox="0 0 155 32" fill="none" xmlns="http://www.w3.org/2000/svg">
<path d="M13.8375 18.8926C13.8375 17.9746 13.5134 17.2725 12.8654 16.7865C12.2173 16.2896 11.0508 15.7712 9.36591 15.2311C7.68097 14.6803 6.34706 14.1402 5.36418 13.611C2.68556 12.1637 1.34625 10.2141 1.34625 7.76231C1.34625 6.48781 1.70268 5.35371 2.41554 4.36003C3.13919 3.35555 4.17068 2.57248 5.50999 2.01084C6.8601 1.44919 8.37222 1.16837 10.0464 1.16837C11.7313 1.16837 13.2326 1.47619 14.5503 2.09184C15.868 2.69669 16.8887 3.55537 17.6124 4.66786C18.3468 5.78035 18.7141 7.04405 18.7141 8.45897H13.8537C13.8537 7.37888 13.5134 6.54181 12.833 5.94776C12.1525 5.34291 11.1967 5.04049 9.96536 5.04049C8.77726 5.04049 7.85378 5.29431 7.19493 5.80195C6.53607 6.29879 6.20665 6.95764 6.20665 7.77851C6.20665 8.54538 6.59008 9.18803 7.35694 9.70647C8.13461 10.2249 9.2741 10.711 10.7754 11.1646C13.5404 11.9963 15.5548 13.0277 16.8185 14.259C18.0822 15.4903 18.7141 17.0241 18.7141 18.8602C18.7141 20.9016 17.9418 22.5055 16.3973 23.672C14.8528 24.8277 12.7736 25.4056 10.1598 25.4056C8.34522 25.4056 6.69269 25.0761 5.20216 24.4173C3.71164 23.7476 2.57215 22.8349 1.78368 21.6793C1.00602 20.5236 0.617188 19.1842 0.617188 17.6613H5.49379C5.49379 20.2643 7.04912 21.5658 10.1598 21.5658C11.3155 21.5658 12.2173 21.3336 12.8654 20.8692C13.5134 20.3939 13.8375 19.7351 13.8375 18.8926Z" fill="white"/>
<path d="M26.2801 9.46345C27.5222 7.97293 29.0829 7.22767 30.9623 7.22767C34.7642 7.22767 36.6922 9.43645 36.7462 13.854V25.0815H32.064V13.9836C32.064 12.9791 31.848 12.2393 31.4159 11.764C30.9839 11.278 30.2656 11.035 29.2611 11.035C27.8894 11.035 26.8957 11.5642 26.2801 12.6227V25.0815H21.5979V0.196289H26.2801V9.46345Z" fill="white"/>
<path d="M39.549 16.1546C39.549 14.4157 39.8838 12.8657 40.5535 11.5048C41.2231 10.1439 42.1844 9.09082 43.4373 8.34556C44.701 7.6003 46.1645 7.22767 47.8279 7.22767C50.1933 7.22767 52.1212 7.95133 53.6117 9.39865C55.1131 10.846 55.9501 12.8117 56.123 15.2959L56.1554 16.4948C56.1554 19.1842 55.4047 21.3444 53.9034 22.9754C52.402 24.5955 50.3877 25.4056 47.8603 25.4056C45.3329 25.4056 43.3131 24.5955 41.801 22.9754C40.2996 21.3552 39.549 19.1518 39.549 16.3652V16.1546ZM44.2312 16.4948C44.2312 18.1582 44.5444 19.4327 45.1708 20.3183C45.7973 21.1932 46.6938 21.6307 47.8603 21.6307C48.9944 21.6307 49.88 21.1986 50.5173 20.3345C51.1545 19.4597 51.4732 18.0664 51.4732 16.1546C51.4732 14.5237 51.1545 13.26 50.5173 12.3635C49.88 11.467 48.9836 11.0188 47.8279 11.0188C46.683 11.0188 45.7973 11.467 45.1708 12.3635C44.5444 13.2492 44.2312 14.6263 44.2312 16.4948Z" fill="white"/>
<path d="M74.8193 16.4786C74.8193 19.1788 74.2036 21.3444 72.9723 22.9754C71.7518 24.5955 70.0993 25.4056 68.0147 25.4056C66.2434 25.4056 64.8123 24.7899 63.7214 23.5586V31.8213H59.0392V7.55169H63.3811L63.5432 9.26903C64.6773 7.90812 66.157 7.22767 67.9823 7.22767C70.1425 7.22767 71.822 8.02693 73.0209 9.62546C74.2198 11.224 74.8193 13.4274 74.8193 16.2356V16.4786ZM70.1371 16.1384C70.1371 14.5075 69.8455 13.2492 69.2622 12.3635C68.6898 11.4778 67.8527 11.035 66.751 11.035C65.2821 11.035 64.2722 11.5966 63.7214 12.7199V19.8971C64.2938 21.0528 65.3145 21.6307 66.7834 21.6307C69.0192 21.6307 70.1371 19.7999 70.1371 16.1384Z" fill="white"/>
<path d="M90.2754 18.8926C90.2754 17.9746 89.9513 17.2725 89.3033 16.7865C88.6552 16.2896 87.4887 15.7712 85.8038 15.2311C84.1189 14.6803 82.7849 14.1402 81.8021 13.611C79.1234 12.1637 77.7841 10.2141 77.7841 7.76231C77.7841 6.48781 78.1406 5.35371 78.8534 4.36003C79.5771 3.35555 80.6086 2.57248 81.9479 2.01084C83.298 1.44919 84.8101 1.16837 86.4842 1.16837C88.1692 1.16837 89.6705 1.47619 90.9882 2.09184C92.3059 2.69669 93.3266 3.55537 94.0503 4.66786C94.7847 5.78035 95.152 7.04405 95.152 8.45897H90.2916C90.2916 7.37888 89.9513 6.54181 89.2709 5.94776C88.5904 5.34291 87.6345 5.04049 86.4032 5.04049C85.2151 5.04049 84.2917 5.29431 83.6328 5.80195C82.974 6.29879 82.6445 6.95764 82.6445 7.77851C82.6445 8.54538 83.028 9.18803 83.7948 9.70647C84.5725 10.2249 85.712 10.711 87.2133 11.1646C89.9783 11.9963 91.9927 13.0277 93.2564 14.259C94.5201 15.4903 95.152 17.0241 95.152 18.8602C95.152 20.9016 94.3797 22.5055 92.8352 23.672C91.2906 24.8277 89.2115 25.4056 86.5977 25.4056C84.7831 25.4056 83.1306 25.0761 81.64 24.4173C80.1495 23.7476 79.01 22.8349 78.2216 21.6793C77.4439 20.5236 77.0551 19.1842 77.0551 17.6613H81.9317C81.9317 20.2643 83.487 21.5658 86.5977 21.5658C87.7534 21.5658 88.6552 21.3336 89.3033 20.8692C89.9513 20.3939 90.2754 19.7351 90.2754 18.8926Z" fill="white"/>
<path d="M103.755 3.24214V7.55169H106.752V10.9864H103.755V19.7351C103.755 20.3831 103.879 20.8476 104.127 21.1284C104.376 21.4092 104.851 21.5496 105.553 21.5496C106.072 21.5496 106.531 21.5118 106.93 21.4362V24.9843C106.012 25.2651 105.067 25.4056 104.095 25.4056C100.812 25.4056 99.1375 23.7476 99.0727 20.4318V10.9864H96.5129V7.55169H99.0727V3.24214H103.755Z" fill="white"/>
<path d="M108.145 16.1546C108.145 14.4157 108.48 12.8657 109.15 11.5048C109.82 10.1439 110.781 9.09082 112.034 8.34556C113.297 7.6003 114.761 7.22767 116.424 7.22767C118.79 7.22767 120.718 7.95133 122.208 9.39865C123.71 10.846 124.547 12.8117 124.719 15.2959L124.752 16.4948C124.752 19.1842 124.001 21.3444 122.5 22.9754C120.998 24.5955 118.984 25.4056 116.457 25.4056C113.929 25.4056 111.91 24.5955 110.397 22.9754C108.896 21.3552 108.145 19.1518 108.145 16.3652V16.1546ZM112.828 16.4948C112.828 18.1582 113.141 19.4327 113.767 20.3183C114.394 21.1932 115.29 21.6307 116.457 21.6307C117.591 21.6307 118.476 21.1986 119.114 20.3345C119.751 19.4597 120.07 18.0664 120.07 16.1546C120.07 14.5237 119.751 13.26 119.114 12.3635C118.476 11.467 117.58 11.0188 116.424 11.0188C115.279 11.0188 114.394 11.467 113.767 12.3635C113.141 13.2492 112.828 14.6263 112.828 16.4948Z" fill="white"/>
<path d="M137.486 11.9423C136.849 11.8558 136.287 11.8126 135.801 11.8126C134.03 11.8126 132.869 12.4121 132.318 13.611V25.0815H127.636V7.55169H132.059L132.188 9.64167C133.128 8.03233 134.429 7.22767 136.093 7.22767C136.611 7.22767 137.097 7.29787 137.551 7.43828L137.486 11.9423Z" fill="white"/>
<path d="M147.498 25.4056C144.928 25.4056 142.832 24.6171 141.212 23.0402C139.603 21.4632 138.798 19.3625 138.798 16.7378V16.2842C138.798 14.5237 139.139 12.9521 139.819 11.5696C140.499 10.1763 141.461 9.10702 142.703 8.36176C143.956 7.6057 145.381 7.22767 146.98 7.22767C149.378 7.22767 151.263 7.98373 152.634 9.49585C154.017 11.008 154.708 13.152 154.708 15.9278V17.8395H143.545C143.697 18.9844 144.15 19.9025 144.906 20.5938C145.673 21.285 146.64 21.6307 147.806 21.6307C149.61 21.6307 151.02 20.9772 152.035 19.6703L154.335 22.2463C153.633 23.24 152.683 24.0176 151.484 24.5793C150.285 25.1301 148.957 25.4056 147.498 25.4056ZM146.964 11.0188C146.035 11.0188 145.279 11.332 144.696 11.9585C144.123 12.5849 143.756 13.4814 143.594 14.6479H150.107V14.2752C150.085 13.2384 149.804 12.4391 149.264 11.8774C148.724 11.305 147.957 11.0188 146.964 11.0188Z" fill="white"/>
</svg>
