<svg width="224" height="46" viewBox="0 0 224 46" fill="none" xmlns="http://www.w3.org/2000/svg">
<path d="M19.7422 27.0557C19.7422 25.7275 19.2734 24.7119 18.3359 24.0088C17.3984 23.29 15.7109 22.54 13.2734 21.7588C10.8359 20.9619 8.90625 20.1807 7.48438 19.415C3.60938 17.3213 1.67188 14.501 1.67188 10.9541C1.67188 9.11035 2.1875 7.46973 3.21875 6.03223C4.26562 4.5791 5.75781 3.44629 7.69531 2.63379C9.64844 1.82129 11.8359 1.41504 14.2578 1.41504C16.6953 1.41504 18.8672 1.86035 20.7734 2.75098C22.6797 3.62598 24.1562 4.86816 25.2031 6.47754C26.2656 8.08691 26.7969 9.91504 26.7969 11.9619H19.7656C19.7656 10.3994 19.2734 9.18848 18.2891 8.3291C17.3047 7.4541 15.9219 7.0166 14.1406 7.0166C12.4219 7.0166 11.0859 7.38379 10.1328 8.11816C9.17969 8.83691 8.70312 9.79004 8.70312 10.9775C8.70312 12.0869 9.25781 13.0166 10.3672 13.7666C11.4922 14.5166 13.1406 15.2197 15.3125 15.876C19.3125 17.0791 22.2266 18.5713 24.0547 20.3525C25.8828 22.1338 26.7969 24.3525 26.7969 27.0088C26.7969 29.9619 25.6797 32.2822 23.4453 33.9697C21.2109 35.6416 18.2031 36.4775 14.4219 36.4775C11.7969 36.4775 9.40625 36.001 7.25 35.0479C5.09375 34.0791 3.44531 32.7588 2.30469 31.0869C1.17969 29.415 0.617188 27.4775 0.617188 25.2744H7.67188C7.67188 29.04 9.92188 30.9229 14.4219 30.9229C16.0938 30.9229 17.3984 30.5869 18.3359 29.915C19.2734 29.2275 19.7422 28.2744 19.7422 27.0557Z" fill="white"/>
<path d="M37.7422 13.415C39.5391 11.2588 41.7969 10.1807 44.5156 10.1807C50.0156 10.1807 52.8047 13.376 52.8828 19.7666V36.0088H46.1094V19.9541C46.1094 18.501 45.7969 17.4307 45.1719 16.7432C44.5469 16.04 43.5078 15.6885 42.0547 15.6885C40.0703 15.6885 38.6328 16.4541 37.7422 17.9854V36.0088H30.9688V0.00878906H37.7422V13.415Z" fill="white"/>
<path d="M56.9375 23.0947C56.9375 20.5791 57.4219 18.3369 58.3906 16.3682C59.3594 14.3994 60.75 12.876 62.5625 11.7979C64.3906 10.7197 66.5078 10.1807 68.9141 10.1807C72.3359 10.1807 75.125 11.2275 77.2812 13.3213C79.4531 15.415 80.6641 18.2588 80.9141 21.8525L80.9609 23.5869C80.9609 27.4775 79.875 30.6025 77.7031 32.9619C75.5312 35.3057 72.6172 36.4775 68.9609 36.4775C65.3047 36.4775 62.3828 35.3057 60.1953 32.9619C58.0234 30.6182 56.9375 27.4307 56.9375 23.3994V23.0947ZM63.7109 23.5869C63.7109 25.9932 64.1641 27.8369 65.0703 29.1182C65.9766 30.3838 67.2734 31.0166 68.9609 31.0166C70.6016 31.0166 71.8828 30.3916 72.8047 29.1416C73.7266 27.876 74.1875 25.8604 74.1875 23.0947C74.1875 20.7354 73.7266 18.9072 72.8047 17.6104C71.8828 16.3135 70.5859 15.665 68.9141 15.665C67.2578 15.665 65.9766 16.3135 65.0703 17.6104C64.1641 18.8916 63.7109 20.8838 63.7109 23.5869Z" fill="white"/>
<path d="M107.961 23.5635C107.961 27.4697 107.07 30.6025 105.289 32.9619C103.523 35.3057 101.133 36.4775 98.1172 36.4775C95.5547 36.4775 93.4844 35.5869 91.9062 33.8057V45.7588H85.1328V10.6494H91.4141L91.6484 13.1338C93.2891 11.165 95.4297 10.1807 98.0703 10.1807C101.195 10.1807 103.625 11.3369 105.359 13.6494C107.094 15.9619 107.961 19.1494 107.961 23.2119V23.5635ZM101.188 23.0713C101.188 20.7119 100.766 18.8916 99.9219 17.6104C99.0938 16.3291 97.8828 15.6885 96.2891 15.6885C94.1641 15.6885 92.7031 16.501 91.9062 18.126V28.5088C92.7344 30.1807 94.2109 31.0166 96.3359 31.0166C99.5703 31.0166 101.188 28.3682 101.188 23.0713Z" fill="white"/>
<path d="M130.32 27.0557C130.32 25.7275 129.852 24.7119 128.914 24.0088C127.977 23.29 126.289 22.54 123.852 21.7588C121.414 20.9619 119.484 20.1807 118.062 19.415C114.188 17.3213 112.25 14.501 112.25 10.9541C112.25 9.11035 112.766 7.46973 113.797 6.03223C114.844 4.5791 116.336 3.44629 118.273 2.63379C120.227 1.82129 122.414 1.41504 124.836 1.41504C127.273 1.41504 129.445 1.86035 131.352 2.75098C133.258 3.62598 134.734 4.86816 135.781 6.47754C136.844 8.08691 137.375 9.91504 137.375 11.9619H130.344C130.344 10.3994 129.852 9.18848 128.867 8.3291C127.883 7.4541 126.5 7.0166 124.719 7.0166C123 7.0166 121.664 7.38379 120.711 8.11816C119.758 8.83691 119.281 9.79004 119.281 10.9775C119.281 12.0869 119.836 13.0166 120.945 13.7666C122.07 14.5166 123.719 15.2197 125.891 15.876C129.891 17.0791 132.805 18.5713 134.633 20.3525C136.461 22.1338 137.375 24.3525 137.375 27.0088C137.375 29.9619 136.258 32.2822 134.023 33.9697C131.789 35.6416 128.781 36.4775 125 36.4775C122.375 36.4775 119.984 36.001 117.828 35.0479C115.672 34.0791 114.023 32.7588 112.883 31.0869C111.758 29.415 111.195 27.4775 111.195 25.2744H118.25C118.25 29.04 120.5 30.9229 125 30.9229C126.672 30.9229 127.977 30.5869 128.914 29.915C129.852 29.2275 130.32 28.2744 130.32 27.0557Z" fill="white"/>
<path d="M149.82 4.41504V10.6494H154.156V15.6182H149.82V28.2744C149.82 29.2119 150 29.8838 150.359 30.29C150.719 30.6963 151.406 30.8994 152.422 30.8994C153.172 30.8994 153.836 30.8447 154.414 30.7354V35.8682C153.086 36.2744 151.719 36.4775 150.312 36.4775C145.562 36.4775 143.141 34.0791 143.047 29.2822V15.6182H139.344V10.6494H143.047V4.41504H149.82Z" fill="white"/>
<path d="M156.172 23.0947C156.172 20.5791 156.656 18.3369 157.625 16.3682C158.594 14.3994 159.984 12.876 161.797 11.7979C163.625 10.7197 165.742 10.1807 168.148 10.1807C171.57 10.1807 174.359 11.2275 176.516 13.3213C178.688 15.415 179.898 18.2588 180.148 21.8525L180.195 23.5869C180.195 27.4775 179.109 30.6025 176.938 32.9619C174.766 35.3057 171.852 36.4775 168.195 36.4775C164.539 36.4775 161.617 35.3057 159.43 32.9619C157.258 30.6182 156.172 27.4307 156.172 23.3994V23.0947ZM162.945 23.5869C162.945 25.9932 163.398 27.8369 164.305 29.1182C165.211 30.3838 166.508 31.0166 168.195 31.0166C169.836 31.0166 171.117 30.3916 172.039 29.1416C172.961 27.876 173.422 25.8604 173.422 23.0947C173.422 20.7354 172.961 18.9072 172.039 17.6104C171.117 16.3135 169.82 15.665 168.148 15.665C166.492 15.665 165.211 16.3135 164.305 17.6104C163.398 18.8916 162.945 20.8838 162.945 23.5869Z" fill="white"/>
<path d="M198.617 17.001C197.695 16.876 196.883 16.8135 196.18 16.8135C193.617 16.8135 191.938 17.6807 191.141 19.415V36.0088H184.367V10.6494H190.766L190.953 13.6729C192.312 11.3447 194.195 10.1807 196.602 10.1807C197.352 10.1807 198.055 10.2822 198.711 10.4854L198.617 17.001Z" fill="white"/>
<path d="M213.102 36.4775C209.383 36.4775 206.352 35.3369 204.008 33.0557C201.68 30.7744 200.516 27.7354 200.516 23.9385V23.2822C200.516 20.7354 201.008 18.4619 201.992 16.4619C202.977 14.4463 204.367 12.8994 206.164 11.8213C207.977 10.7275 210.039 10.1807 212.352 10.1807C215.82 10.1807 218.547 11.2744 220.531 13.4619C222.531 15.6494 223.531 18.751 223.531 22.7666V25.5322H207.383C207.602 27.1885 208.258 28.5166 209.352 29.5166C210.461 30.5166 211.859 31.0166 213.547 31.0166C216.156 31.0166 218.195 30.0713 219.664 28.1807L222.992 31.9072C221.977 33.3447 220.602 34.4697 218.867 35.2822C217.133 36.0791 215.211 36.4775 213.102 36.4775ZM212.328 15.665C210.984 15.665 209.891 16.1182 209.047 17.0244C208.219 17.9307 207.688 19.2275 207.453 20.915H216.875V20.376C216.844 18.876 216.438 17.7197 215.656 16.9072C214.875 16.0791 213.766 15.665 212.328 15.665Z" fill="white"/>
</svg>
