<svg width="53" height="54" viewBox="0 0 53 54" fill="none" xmlns="http://www.w3.org/2000/svg">
<path d="M26.5 13.7588C24.8621 13.7588 23.261 14.2445 21.8992 15.1544C20.5373 16.0644 19.4759 17.3577 18.8491 18.8709C18.2223 20.3841 18.0583 22.0492 18.3779 23.6556C18.6974 25.262 19.4861 26.7376 20.6443 27.8958C21.8024 29.0539 23.278 29.8426 24.8844 30.1622C26.4908 30.4817 28.1559 30.3177 29.6691 29.6909C31.1823 29.0641 32.4757 28.0027 33.3856 26.6409C34.2956 25.279 34.7813 23.6779 34.7813 22.04C34.7813 19.8437 33.9088 17.7373 32.3557 16.1843C30.8027 14.6313 28.6963 13.7588 26.5 13.7588Z" fill="#F5F5F5"/>
<path d="M26.5 3.82129C21.914 3.82129 17.4309 5.18121 13.6177 7.72909C9.80456 10.277 6.83256 13.8984 5.07755 18.1353C3.32255 22.3723 2.86336 27.0345 3.75805 31.5324C4.65275 36.0304 6.86114 40.162 10.104 43.4048C13.3468 46.6477 17.4784 48.856 21.9764 49.7507C26.4743 50.6454 31.1365 50.1862 35.3735 48.4312C39.6104 46.6762 43.2318 43.7042 45.7797 39.8911C48.3276 36.0779 49.6875 31.5948 49.6875 27.0088C49.6805 20.8612 47.2353 14.9675 42.8883 10.6205C38.5413 6.27352 32.6476 3.8283 26.5 3.82129V3.82129ZM39.7368 41.7925C39.7038 39.62 38.8186 37.5475 37.2721 36.0214C35.7256 34.4953 33.6415 33.6379 31.4688 33.6338H21.5313C19.3586 33.6379 17.2744 34.4953 15.7279 36.0214C14.1814 37.5475 13.2963 39.62 13.2633 41.7925C10.2598 39.1106 8.14169 35.5797 7.18952 31.6673C6.23735 27.7549 6.49599 23.6455 7.93119 19.8834C9.3664 16.1212 11.9105 12.8837 15.2265 10.5996C18.5426 8.31547 22.4742 7.09243 26.5008 7.09243C30.5274 7.09243 34.4591 8.31547 37.7751 10.5996C41.0912 12.8837 43.6353 16.1212 45.0705 19.8834C46.5057 23.6455 46.7643 27.7549 45.8122 31.6673C44.86 35.5797 42.7419 39.1106 39.7384 41.7925H39.7368Z" fill="#F5F5F5"/>
</svg>
